{
	"patcher" : 	{
		"fileversion" : 1,
		"rect" : [ 1474.0, 545.0, 802.0, 502.0 ],
		"bglocked" : 0,
		"defrect" : [ 1474.0, 545.0, 802.0, 502.0 ],
		"openrect" : [ 0.0, 0.0, 0.0, 0.0 ],
		"openinpresentation" : 0,
		"default_fontsize" : 12.0,
		"default_fontface" : 0,
		"default_fontname" : "Arial",
		"gridonopen" : 0,
		"gridsize" : [ 5.0, 5.0 ],
		"gridsnaponopen" : 0,
		"toolbarvisible" : 1,
		"boxanimatetime" : 200,
		"imprint" : 0,
		"enablehscroll" : 1,
		"enablevscroll" : 1,
		"devicewidth" : 0.0,
		"boxes" : [ 			{
				"box" : 				{
					"maxclass" : "comment",
					"text" : "$Id: midityping.maxpat 2 2010-11-15 20:59:25Z mark $",
					"numoutlets" : 0,
					"fontsize" : 12.0,
					"patching_rect" : [ 5.0, 15.0, 211.0, 20.0 ],
					"id" : "obj-15",
					"fontname" : "Arial",
					"numinlets" : 1
				}

			}
, 			{
				"box" : 				{
					"maxclass" : "comment",
					"text" : "The keymap file determines how the keys are recognized.  They do not have to function as normal clavier keys (i.e. white keys, black keys).  They can follw any particular pattern.",
					"linecount" : 8,
					"numoutlets" : 0,
					"fontsize" : 12.0,
					"patching_rect" : [ 5.0, 150.0, 154.0, 117.0 ],
					"id" : "obj-12",
					"fontname" : "Arial",
					"numinlets" : 1
				}

			}
, 			{
				"box" : 				{
					"maxclass" : "comment",
					"text" : "on/off, 1/0",
					"numoutlets" : 0,
					"fontsize" : 12.0,
					"patching_rect" : [ 460.0, 10.0, 68.0, 20.0 ],
					"id" : "obj-11",
					"fontname" : "Arial",
					"numinlets" : 1
				}

			}
, 			{
				"box" : 				{
					"maxclass" : "comment",
					"text" : "When including this in a standalone, add the keymap files to the application's support directory.",
					"linecount" : 5,
					"numoutlets" : 0,
					"fontsize" : 12.0,
					"patching_rect" : [ 5.0, 325.0, 150.0, 75.0 ],
					"id" : "obj-9",
					"fontname" : "Arial",
					"numinlets" : 1
				}

			}
, 			{
				"box" : 				{
					"maxclass" : "comment",
					"text" : "TO DO: keymaps for different national keyboards.",
					"linecount" : 3,
					"numoutlets" : 0,
					"fontsize" : 12.0,
					"patching_rect" : [ 450.0, 175.0, 125.0, 48.0 ],
					"id" : "obj-22",
					"fontname" : "Arial",
					"numinlets" : 1
				}

			}
, 			{
				"box" : 				{
					"maxclass" : "newobj",
					"text" : "flush",
					"numoutlets" : 2,
					"fontsize" : 12.0,
					"outlettype" : [ "int", "int" ],
					"patching_rect" : [ 290.0, 330.0, 36.0, 20.0 ],
					"id" : "obj-20",
					"fontname" : "Arial",
					"numinlets" : 2
				}

			}
, 			{
				"box" : 				{
					"maxclass" : "newobj",
					"text" : "t i b",
					"numoutlets" : 2,
					"fontsize" : 12.0,
					"outlettype" : [ "int", "bang" ],
					"patching_rect" : [ 290.0, 155.0, 32.5, 20.0 ],
					"id" : "obj-19",
					"fontname" : "Arial",
					"numinlets" : 1
				}

			}
, 			{
				"box" : 				{
					"maxclass" : "newobj",
					"text" : "select 32",
					"numoutlets" : 2,
					"fontsize" : 12.0,
					"outlettype" : [ "bang", "" ],
					"patching_rect" : [ 270.0, 55.0, 59.0, 20.0 ],
					"id" : "obj-13",
					"fontname" : "Arial",
					"numinlets" : 2
				}

			}
, 			{
				"box" : 				{
					"maxclass" : "gswitch2",
					"numoutlets" : 2,
					"outlettype" : [ "", "" ],
					"patching_rect" : [ 580.0, 110.0, 39.0, 32.0 ],
					"id" : "obj-10",
					"numinlets" : 2
				}

			}
, 			{
				"box" : 				{
					"maxclass" : "gswitch2",
					"numoutlets" : 2,
					"outlettype" : [ "", "" ],
					"patching_rect" : [ 270.0, 110.0, 39.0, 32.0 ],
					"id" : "obj-7",
					"numinlets" : 2
				}

			}
, 			{
				"box" : 				{
					"maxclass" : "inlet",
					"annotation" : "0 = off, >0 = on",
					"numoutlets" : 1,
					"outlettype" : [ "" ],
					"patching_rect" : [ 430.0, 5.0, 25.0, 25.0 ],
					"id" : "obj-1",
					"numinlets" : 0,
					"comment" : "0 = off, >0 = on"
				}

			}
, 			{
				"box" : 				{
					"maxclass" : "newobj",
					"text" : "loadbang",
					"numoutlets" : 1,
					"fontsize" : 12.0,
					"outlettype" : [ "bang" ],
					"patching_rect" : [ 410.0, 125.0, 60.0, 20.0 ],
					"id" : "obj-31",
					"fontname" : "Arial",
					"numinlets" : 1
				}

			}
, 			{
				"box" : 				{
					"maxclass" : "newobj",
					"text" : "coll",
					"numoutlets" : 4,
					"fontsize" : 12.0,
					"outlettype" : [ "", "", "", "" ],
					"patching_rect" : [ 600.0, 275.0, 59.5, 20.0 ],
					"id" : "obj-29",
					"fontname" : "Arial",
					"numinlets" : 1,
					"saved_object_attributes" : 					{
						"embed" : 0
					}

				}

			}
, 			{
				"box" : 				{
					"maxclass" : "message",
					"text" : "read midityping-keymap-US.txt",
					"numoutlets" : 1,
					"fontsize" : 12.0,
					"outlettype" : [ "" ],
					"patching_rect" : [ 410.0, 155.0, 175.0, 18.0 ],
					"id" : "obj-28",
					"fontname" : "Arial",
					"numinlets" : 2
				}

			}
, 			{
				"box" : 				{
					"maxclass" : "newobj",
					"text" : "append 0",
					"numoutlets" : 1,
					"fontsize" : 12.0,
					"outlettype" : [ "" ],
					"patching_rect" : [ 600.0, 320.0, 61.0, 20.0 ],
					"id" : "obj-25",
					"fontname" : "Arial",
					"numinlets" : 1
				}

			}
, 			{
				"box" : 				{
					"maxclass" : "newobj",
					"text" : "pack",
					"numoutlets" : 1,
					"fontsize" : 12.0,
					"outlettype" : [ "" ],
					"patching_rect" : [ 290.0, 360.0, 36.0, 20.0 ],
					"id" : "obj-18",
					"fontname" : "Arial",
					"numinlets" : 2
				}

			}
, 			{
				"box" : 				{
					"maxclass" : "newobj",
					"text" : "loadmess 64",
					"numoutlets" : 1,
					"fontsize" : 12.0,
					"outlettype" : [ "" ],
					"patching_rect" : [ 320.0, 205.0, 79.0, 20.0 ],
					"id" : "obj-17",
					"fontname" : "Arial",
					"numinlets" : 1
				}

			}
, 			{
				"box" : 				{
					"maxclass" : "number",
					"numoutlets" : 2,
					"fontsize" : 12.0,
					"outlettype" : [ "int", "bang" ],
					"patching_rect" : [ 310.0, 250.0, 50.0, 20.0 ],
					"id" : "obj-16",
					"fontname" : "Arial",
					"numinlets" : 1
				}

			}
, 			{
				"box" : 				{
					"maxclass" : "outlet",
					"annotation" : "MIDI key number, velocity",
					"numoutlets" : 0,
					"patching_rect" : [ 395.0, 415.0, 25.0, 25.0 ],
					"id" : "obj-6",
					"numinlets" : 1,
					"comment" : "MIDI key number, velocity"
				}

			}
, 			{
				"box" : 				{
					"maxclass" : "newobj",
					"text" : "coll",
					"numoutlets" : 4,
					"fontsize" : 12.0,
					"outlettype" : [ "", "", "", "" ],
					"patching_rect" : [ 245.0, 250.0, 59.5, 20.0 ],
					"id" : "obj-5",
					"fontname" : "Arial",
					"numinlets" : 1,
					"saved_object_attributes" : 					{
						"embed" : 0
					}

				}

			}
, 			{
				"box" : 				{
					"maxclass" : "newobj",
					"text" : "keyup",
					"numoutlets" : 4,
					"fontsize" : 12.0,
					"outlettype" : [ "int", "int", "int", "int" ],
					"patching_rect" : [ 600.0, 5.0, 59.5, 20.0 ],
					"id" : "obj-4",
					"fontname" : "Arial",
					"numinlets" : 0
				}

			}
, 			{
				"box" : 				{
					"maxclass" : "newobj",
					"text" : "key",
					"numoutlets" : 4,
					"fontsize" : 12.0,
					"outlettype" : [ "int", "int", "int", "int" ],
					"patching_rect" : [ 270.0, 5.0, 59.5, 20.0 ],
					"id" : "obj-3",
					"fontname" : "Arial",
					"numinlets" : 0
				}

			}
, 			{
				"box" : 				{
					"maxclass" : "comment",
					"text" : "Listen to computer keyboard's alphabetic keys and output MIDI note number and velocity messages.",
					"linecount" : 5,
					"numoutlets" : 0,
					"fontsize" : 12.0,
					"patching_rect" : [ 5.0, 65.0, 159.0, 75.0 ],
					"id" : "obj-2",
					"fontname" : "Arial",
					"numinlets" : 1
				}

			}
 ],
		"lines" : [ 			{
				"patchline" : 				{
					"source" : [ "obj-13", 0 ],
					"destination" : [ "obj-20", 0 ],
					"hidden" : 0,
					"midpoints" : [ 279.5, 89.0, 231.0, 89.0, 231.0, 315.0, 299.5, 315.0 ]
				}

			}
, 			{
				"patchline" : 				{
					"source" : [ "obj-20", 1 ],
					"destination" : [ "obj-18", 1 ],
					"hidden" : 0,
					"midpoints" : [  ]
				}

			}
, 			{
				"patchline" : 				{
					"source" : [ "obj-20", 0 ],
					"destination" : [ "obj-18", 0 ],
					"hidden" : 0,
					"midpoints" : [  ]
				}

			}
, 			{
				"patchline" : 				{
					"source" : [ "obj-16", 0 ],
					"destination" : [ "obj-20", 1 ],
					"hidden" : 0,
					"midpoints" : [ 319.5, 290.292084, 316.5, 290.292084 ]
				}

			}
, 			{
				"patchline" : 				{
					"source" : [ "obj-5", 0 ],
					"destination" : [ "obj-20", 0 ],
					"hidden" : 0,
					"midpoints" : [ 254.5, 289.0, 299.5, 289.0 ]
				}

			}
, 			{
				"patchline" : 				{
					"source" : [ "obj-19", 1 ],
					"destination" : [ "obj-16", 0 ],
					"hidden" : 0,
					"midpoints" : [ 313.0, 237.0, 319.5, 237.0 ]
				}

			}
, 			{
				"patchline" : 				{
					"source" : [ "obj-19", 0 ],
					"destination" : [ "obj-5", 0 ],
					"hidden" : 0,
					"midpoints" : [ 299.5, 189.0, 254.5, 189.0 ]
				}

			}
, 			{
				"patchline" : 				{
					"source" : [ "obj-7", 1 ],
					"destination" : [ "obj-19", 0 ],
					"hidden" : 0,
					"midpoints" : [  ]
				}

			}
, 			{
				"patchline" : 				{
					"source" : [ "obj-13", 1 ],
					"destination" : [ "obj-7", 1 ],
					"hidden" : 0,
					"midpoints" : [ 319.5, 82.0, 299.5, 82.0 ]
				}

			}
, 			{
				"patchline" : 				{
					"source" : [ "obj-3", 0 ],
					"destination" : [ "obj-13", 0 ],
					"hidden" : 0,
					"midpoints" : [ 279.5, 42.0, 279.5, 42.0 ]
				}

			}
, 			{
				"patchline" : 				{
					"source" : [ "obj-1", 0 ],
					"destination" : [ "obj-10", 0 ],
					"hidden" : 0,
					"midpoints" : [ 439.5, 96.0, 589.5, 96.0 ]
				}

			}
, 			{
				"patchline" : 				{
					"source" : [ "obj-1", 0 ],
					"destination" : [ "obj-7", 0 ],
					"hidden" : 0,
					"midpoints" : [ 439.5, 96.0, 279.5, 96.0 ]
				}

			}
, 			{
				"patchline" : 				{
					"source" : [ "obj-10", 1 ],
					"destination" : [ "obj-29", 0 ],
					"hidden" : 0,
					"midpoints" : [  ]
				}

			}
, 			{
				"patchline" : 				{
					"source" : [ "obj-4", 0 ],
					"destination" : [ "obj-10", 1 ],
					"hidden" : 0,
					"midpoints" : [  ]
				}

			}
, 			{
				"patchline" : 				{
					"source" : [ "obj-17", 0 ],
					"destination" : [ "obj-16", 0 ],
					"hidden" : 0,
					"midpoints" : [ 329.5, 237.0, 319.5, 237.0 ]
				}

			}
, 			{
				"patchline" : 				{
					"source" : [ "obj-31", 0 ],
					"destination" : [ "obj-28", 0 ],
					"hidden" : 0,
					"midpoints" : [  ]
				}

			}
, 			{
				"patchline" : 				{
					"source" : [ "obj-29", 0 ],
					"destination" : [ "obj-25", 0 ],
					"hidden" : 0,
					"midpoints" : [  ]
				}

			}
, 			{
				"patchline" : 				{
					"source" : [ "obj-28", 0 ],
					"destination" : [ "obj-29", 0 ],
					"hidden" : 0,
					"midpoints" : [ 419.5, 261.0, 609.5, 261.0 ]
				}

			}
, 			{
				"patchline" : 				{
					"source" : [ "obj-28", 0 ],
					"destination" : [ "obj-5", 0 ],
					"hidden" : 0,
					"midpoints" : [ 419.5, 189.0, 254.5, 189.0 ]
				}

			}
, 			{
				"patchline" : 				{
					"source" : [ "obj-18", 0 ],
					"destination" : [ "obj-6", 0 ],
					"hidden" : 0,
					"midpoints" : [ 299.5, 402.0, 404.5, 402.0 ]
				}

			}
, 			{
				"patchline" : 				{
					"source" : [ "obj-25", 0 ],
					"destination" : [ "obj-6", 0 ],
					"hidden" : 0,
					"midpoints" : [ 609.5, 402.0, 404.5, 402.0 ]
				}

			}
 ]
	}

}
